<svg xmlns="http://www.w3.org/2000/svg" viewBox="0 0 469.76 413.11"><path d="M225.61,216.83c-.09,7.62.33,15.29-.37,22.85-1.8,19.46.74,38,10.49,55.16-4.26-.39-6.46-3.85-8.69-6.62-6.38-7.93-13.8-14.87-20.75-22.21-14-14.84-27.71-30-42.1-44.55-1.78-1.79-5.3-3.39-2.85-7.09,2.76-.31,5.59.57,8.3-.54h2a10.27,10.27,0,0,0,7,0h3c5.21,1.82,10.56,1.74,15.94,1.2a62,62,0,0,1,15,.75C216.84,217.33,221.36,215.42,225.61,216.83Z" transform="translate(-62.64 -213.83)" fill="#7fbc4f"/><path d="M197.58,215c-4.79,1.67-9.72.56-14.59.63-.89,0-1.21-1-1.35-1.83h7C191.38,216,194.67,214.14,197.58,215Z" transform="translate(-62.64 -213.83)" fill="#72af43"/><path d="M169.64,213.83c-2.82,2-6,.57-9,1a.68.68,0,0,1-1,0,2.54,2.54,0,0,1,0-1Z" transform="translate(-62.64 -213.83)" fill="#73ab4b"/><path d="M178.64,213.83c-2.34,1.67-4.67,1.46-7,0Z" transform="translate(-62.64 -213.83)" fill="#a7c68f"/><path d="M62.64,488.83c1.63,2,1.42,4,0,6Z" transform="translate(-62.64 -213.83)" fill="#a1cb7e"/><path d="M309.63,373.92c9.71,10.39,19.18,21,29.46,30.87a37.8,37.8,0,0,1,6.56,8c-16,16.1-35.65,25.61-57.82,29.06-43.53,6.77-79.56-7.25-107.83-41-.87-1-2.88-1.95-1.87-3.62.71-1.17,2.47-.45,3.74-.41,36.1,1,72.2,2.13,108.3,3.07,11.42.3,19.23-6.71,20.05-17.2C310.45,379.69,308.39,376.93,309.63,373.92Z" transform="translate(-62.64 -213.83)" fill="#629a38"/><path d="M230.86,383.3c-19.15-.51-38.3-1.16-57.46-1.43-4.56-.06-7-1.74-8.64-5.83a159,159,0,0,1-7.69-25.26c-.84-3.92.73-4.68,4.1-4.58q48.71,1.55,97.42,2.92c5.13.14,9.09,1.57,12.61,5.61,6.88,7.92,14.31,15.36,21.46,23,1.3,1.4,3.24,2.68,2.24,5.09-1.08,2.6-3.44,2.24-5.58,2.19q-29.24-.76-58.46-1.58Z" transform="translate(-62.64 -213.83)" fill="#629a38"/><path d="M288.49,309c.95-28.44,2-56.87,2.79-85.32.1-3.64,1.23-3.92,4.44-3.15a115.49,115.49,0,0,1,26,9.91c2.49,1.28,3.15,2.87,3.07,5.51q-1.81,58.88-3.46,117.78c-.06,2.19.13,4.72-2.34,5.53-2.25.75-3.54-1.44-4.87-2.86-7.85-8.37-15.62-16.83-23.5-25.17a9.38,9.38,0,0,1-2.56-7.25c.13-5,0-10,0-15Z" transform="translate(-62.64 -213.83)" fill="#7fbc4f"/><path d="M251,333.66c-7.55,0-14.3.15-21,0-22.65-.59-45.29-1.3-67.94-2-6.33-.19-6.54-.37-6.36-6.56.24-8.16.61-16.31.79-24.47.06-2.55.57-4.12,3.61-4,14.13.45,28.32,0,42.38,2A51.14,51.14,0,0,1,226.47,309C235.58,316,242.88,324.75,251,333.66Z" transform="translate(-62.64 -213.83)" fill="#629a38"/><path d="M271.67,311.24c-10.44-12.26-23.76-22.3-28.4-39-3.47-12.47-2.65-25.07-2.2-37.7.16-4.49.37-9,.48-13.48,0-2,.37-3.73,2.93-3.67,8.81.18,17.63.48,26.45.53,3.68,0,4.91,1.5,4.77,5.15q-1.24,34.44-2.2,68.88c-.18,6.3,0,12.61,0,18.91Z" transform="translate(-62.64 -213.83)" fill="#7fbc4f"/><path d="M159.6,214.82h1a15.4,15.4,0,0,0,3,4.52q21.85,22.82,43.63,45.7c8.31,8.78,16.44,17.74,24.69,26.58a42.58,42.58,0,0,0,3.75,3.21c.27.75,1,1.83.72,2.19-.77,1-1.29-.25-1.82-.62-11.45-7.89-24.08-12.67-38-13.49-11.1-.67-22.24-.78-33.37-1.08-6.32-.17-6.46-.39-6.25-6.47.63-18.26,1.13-36.53,1.74-54.79C158.83,218.65,158.2,216.57,159.6,214.82Z" transform="translate(-62.64 -213.83)" fill="#629a38"/><path d="M225.61,216.83c-4.32-.58-8.83,1.25-13-1.05C217,216,221.41,214.79,225.61,216.83Z" transform="translate(-62.64 -213.83)" fill="#74b446"/><path d="M491.65,335.89c-31-45.33-72.21-76.88-126.11-90.48-7.37-1.86-14.68-3.76-22.58-1.21-2.59.83-2.47,1.67-2.53,3.32q-.78,21.46-1.49,42.93c-.7,22.13-1.3,44.26-2,66.39-.25,7.29-3.19,13.14-9.86,16.78-5.78,3.14-11.58,1.92-17.41.3.22,2.71,2.29,4.2,3.91,6,8.63,9.59,17.64,18.82,26.88,27.83,1.73,1.69,2.53,4.37,5.23,5.06l8-7.32c1.48,4.59-.49,7.71-3.06,10.25-7.58,7.47-14.8,15.34-23.63,21.47-38.93,27-94.83,24.56-132.8-6.49C176,415.89,161.31,398.4,158.25,374c-2-16-12-15.65-22.1-11.68a25.8,25.8,0,0,0-4.45,2.25c-13.13,8.4-25.2,18.13-35,30.27-16.05,19.86-25,43-30.17,67.76-1.42,6.74-1.19,13.79-3.87,20.28v6a7.71,7.71,0,0,1,0,6v28c1.46.58,1,1.94,1.16,3,2.6,20.27,7.6,39.82,16.71,58.23,9.44,19.08,22.35,34.24,43.8,40.22,9.6,2.67,19.38,2.88,29.23,2.51,17.23-.65,21.28-4.67,21.92-21.82.53-14,9.84-22.92,23.77-22.79s22.11,8.58,22.3,23.25c0,1,0,2,0,3,.17,10.92,5.38,16.16,16.39,16.26,8.33.08,16.66,0,25-.14,9.32-.15,18.65-.31,28-.76s11.77-3.89,8.45-12.53c-2.69-7-6.12-13.66-9.09-20.53-17.63-40.73.09-87.36,39.71-104.61,31.3-13.61,63.85-5.2,82,21.55,11.7,17.22,12,35.55,3.58,54.14-3.89,8.62-8.76,10.77-18,9.18a11.36,11.36,0,0,0-6.37.72c-16,6.64-29,17-37.89,31.92-5.91,10-2.37,17,9.09,19.25a132.36,132.36,0,0,0,38.73,2.2c38.1-3.65,69.18-20.57,93.65-49.63,25.89-30.74,36.77-67.16,37.59-106.66C533.36,420.19,519,375.86,491.65,335.89ZM411.3,382.82c-12.12,0-19.48-6.95-19.55-18.46-.08-11.8,7.23-19.44,18.66-19.49,11.72-.06,19.23,7.59,19.2,19.55C429.58,376.05,422.84,382.83,411.3,382.82Z" transform="translate(-62.64 -213.83)" fill="#7dbb4f"/></svg>